HIERARCHY
ROOT Hips
{
	OFFSET 0.00000 0.00000 0.00000
	CHANNELS 6 Xposition Yposition Zposition Zrotation Yrotation Xrotation 
	JOINT LHipJoint
	{
		OFFSET 0 0 0
		CHANNELS 3 Zrotation Yrotation Xrotation
		JOINT LeftUpLeg
		{
			OFFSET 1.53794 -1.55850 0.93568
			CHANNELS 3 Zrotation Yrotation Xrotation
			JOINT LeftLeg
			{
				OFFSET 2.28545 -6.27922 0.00000
				CHANNELS 3 Zrotation Yrotation Xrotation
				JOINT LeftFoot
				{
					OFFSET 2.37329 -6.52057 0.00000
					CHANNELS 3 Zrotation Yrotation Xrotation
					JOINT LeftToeBase
					{
						OFFSET 0.14846 -0.40788 2.09160
						CHANNELS 3 Zrotation Yrotation Xrotation
						End Site
						{
							OFFSET 0.00000 -0.00000 1.07536
						}
					}
				}
			}
		}
	}
	JOINT RHipJoint
	{
		OFFSET 0 0 0
		CHANNELS 3 Zrotation Yrotation Xrotation
		JOINT RightUpLeg
		{
			OFFSET -1.78290 -1.55850 0.93568
			CHANNELS 3 Zrotation Yrotation Xrotation
			JOINT RightLeg
			{
				OFFSET -2.24144 -6.15831 0.00000
				CHANNELS 3 Zrotation Yrotation Xrotation
				JOINT RightFoot
				{
					OFFSET -2.35091 -6.45907 0.00000
					CHANNELS 3 Zrotation Yrotation Xrotation
					JOINT RightToeBase
					{
						OFFSET -0.14428 -0.39641 2.07944
						CHANNELS 3 Zrotation Yrotation Xrotation
						End Site
						{
							OFFSET -0.00000 -0.00000 1.06864
						}
					}
				}
			}
		}
	}
	JOINT LowerBack
	{
		OFFSET 0 0 0
		CHANNELS 3 Zrotation Yrotation Xrotation
		JOINT Spine
		{
			OFFSET -0.08841 2.11430 -0.15818
			CHANNELS 3 Zrotation Yrotation Xrotation
			JOINT Spine1
			{
				OFFSET -0.00033 2.12605 -0.08097
				CHANNELS 3 Zrotation Yrotation Xrotation
				JOINT Neck
				{
					OFFSET 0 0 0
					CHANNELS 3 Zrotation Yrotation Xrotation
					JOINT Neck1
					{
						OFFSET 0.04431 1.59447 0.43193
						CHANNELS 3 Zrotation Yrotation Xrotation
						JOINT Head
						{
							OFFSET 0.00455 1.62017 -0.58852
							CHANNELS 3 Zrotation Yrotation Xrotation
							End Site
							{
								OFFSET -0.00920 1.72955 -0.25850
							}
						}
					}
				}
				JOINT LeftShoulder
				{
					OFFSET 0 0 0
					CHANNELS 3 Zrotation Yrotation Xrotation
					JOINT LeftArm
					{
						OFFSET 2.86490 1.49927 -0.33774
						CHANNELS 3 Zrotation Yrotation Xrotation
						JOINT LeftForeArm
						{
							OFFSET 4.87408 -0.00000 0.00000
							CHANNELS 3 Zrotation Yrotation Xrotation
							JOINT LeftHand
							{
								OFFSET 2.76729 -0.00000 0.00000
								CHANNELS 3 Zrotation Yrotation Xrotation
								JOINT LeftFingerBase
								{
									OFFSET 0 0 0
									CHANNELS 3 Zrotation Yrotation Xrotation
									JOINT LeftHandIndex1
									{
										OFFSET 0.98922 -0.00000 0.00000
										CHANNELS 3 Zrotation Yrotation Xrotation
										End Site
										{
											OFFSET 0.79753 -0.00000 0.00000
										}
									}
								}
								JOINT LThumb
								{
									OFFSET 0 0 0
									CHANNELS 3 Zrotation Yrotation Xrotation
									End Site
									{
										OFFSET 0.80972 -0.00000 0.80972
									}
								}
							}
						}
					}
				}
				JOINT RightShoulder
				{
					OFFSET 0 0 0
					CHANNELS 3 Zrotation Yrotation Xrotation
					JOINT RightArm
					{
						OFFSET -2.94414 1.45463 -0.25291
						CHANNELS 3 Zrotation Yrotation Xrotation
						JOINT RightForeArm
						{
							OFFSET -4.71404 -0.00000 0.00000
							CHANNELS 3 Zrotation Yrotation Xrotation
							JOINT RightHand
							{
								OFFSET -2.83468 -0.00000 0.00000
								CHANNELS 3 Zrotation Yrotation Xrotation
								JOINT RightFingerBase
								{
									OFFSET 0 0 0
									CHANNELS 3 Zrotation Yrotation Xrotation
									JOINT RightHandIndex1
									{
										OFFSET -0.86820 -0.00000 0.00000
										CHANNELS 3 Zrotation Yrotation Xrotation
										End Site
										{
											OFFSET -0.69996 -0.00000 0.00000
										}
									}
								}
								JOINT RThumb
								{
									OFFSET 0 0 0
									CHANNELS 3 Zrotation Yrotation Xrotation
									End Site
									{
										OFFSET -0.71065 -0.00000 0.71065
									}
								}
							}
						}
					}
				}
			}
		}
	}
}
MOTION
Frames: 14
Frame Time: .0083333
0.9100 16.0307 5.2467 173.3070 6.6093 -177.8290 0.0000 0.0000 0.0000 -31.5802 -3.1869 -10.4698 0.7966 5.6969 15.9076 -0.3372 10.2614 -4.6432 0.1963 2.8529 7.8695 0.0000 0.0000 0.0000 12.2038 3.2278 -22.4173 -14.6448 -19.2981 74.1644 0.7196 -17.2122 3.0198 -0.8713 5.9514 -16.6433 -7.3710 1.1258 -3.2142 -3.0625 2.1747 1.8569 1.0932 1.0301 3.5960 2.4973 0.3019 -34.0761 -0.2978 0.3841 35.9359 -0.3174 0.9007 19.6901 0.0000 0.0000 0.0000 -85.8882 -2.2963 -6.9370 7.7286 -13.1120 -0.8895 -0.0000 -0.0000 69.8651 -0.3173 6.1046 -0.0337 -7.1250 0.0000 -0.0000 -22.2245 35.2763 5.6671 0.0000 0.0000 0.0000 88.6060 -4.6442 7.9423 -14.6740 23.6900 -3.0938 0.0000 0.0000 34.1220 -1.1232 -5.7688 0.1129 7.1250 -0.0000 -0.0000 21.0057 -35.0507 5.4407
0.9079 16.0293 5.1184 173.2870 6.0666 -177.7570 0.0000 0.0000 0.0000 -31.7143 -3.1684 -9.9853 0.7990 5.7052 15.9314 -0.3148 9.9828 -5.1315 0.1859 2.7766 7.6573 0.0000 0.0000 0.0000 12.1169 3.6177 -23.6626 -14.7191 -19.3178 74.3892 0.7249 -16.7024 1.9610 -0.9731 6.2799 -17.5987 -7.4483 0.9292 -3.2827 -3.0016 1.9188 1.8639 1.1860 0.8970 3.6564 2.1151 0.1452 -34.4511 -0.0080 0.3072 36.5036 -0.1152 0.8915 20.1293 0.0000 0.0000 0.0000 -86.0332 -2.8899 -4.6008 7.9045 -13.3979 -0.9299 -0.0000 -0.0000 67.5572 -0.4480 6.5374 -0.0510 -7.1250 0.0000 -0.0000 -22.4439 35.6684 5.4991 0.0000 0.0000 0.0000 88.4802 -4.9632 7.4594 -14.5165 23.4683 -3.0308 0.0000 0.0000 34.5746 -1.1556 -5.6713 0.1142 7.1250 -0.0000 -0.0000 20.9555 -34.9615 5.4748
0.9064 16.0231 4.9957 173.0820 5.3393 -177.6560 0.0000 0.0000 0.0000 -32.0425 -3.1430 -9.6276 0.8156 5.7629 16.0979 -0.2791 9.5292 -5.6294 0.1617 2.5911 7.1423 0.0000 0.0000 0.0000 11.7985 3.8439 -24.9525 -14.7387 -19.3230 74.4484 0.7102 -16.0289 0.8400 -1.0558 6.5335 -18.3406 -7.7955 0.6352 -3.3127 -2.9579 1.5510 1.8803 1.4023 0.7049 3.7105 2.3252 0.2326 -34.2723 -0.1461 0.4369 36.6826 -0.1800 0.9673 20.1986 0.0000 -0.0000 0.0000 -86.1924 -3.6607 -2.8323 8.0306 -13.6024 -0.9593 -0.0000 -0.0000 65.8235 -0.6107 6.8070 -0.0724 -7.1250 0.0000 -0.0000 -22.6463 35.9069 5.4132 0.0000 -0.0000 0.0000 88.3753 -5.4011 7.0293 -14.5124 23.4625 -3.0291 0.0000 0.0000 35.2499 -0.9573 -5.5177 0.0921 7.1250 -0.0000 -0.0000 21.0728 -34.8067 5.5943
0.9064 16.0144 4.8723 173.0170 4.7180 -177.5580 0.0000 0.0000 0.0000 -32.1904 -3.1875 -9.2781 0.8378 5.8389 16.3176 -0.2512 9.2200 -6.1610 0.1511 2.5052 6.9040 0.0000 0.0000 0.0000 11.6580 4.2291 -26.1729 -14.6923 -19.3107 74.3082 0.6887 -15.3675 -0.2746 -1.2585 7.1117 -20.0466 -7.9562 0.4418 -3.2962 -2.9108 1.2946 1.8444 1.5239 0.5746 3.6811 1.8959 0.0311 -34.2611 0.1841 0.2326 36.6642 0.0053 0.8792 20.1797 -0.0000 0.0000 0.0000 -86.3622 -4.3020 -1.8902 8.1189 -13.7455 -0.9802 -0.0000 -0.0000 65.9353 -0.3420 6.4829 -0.0386 -7.1250 0.0000 -0.0000 -22.3457 35.6248 5.4974 -0.0000 0.0000 0.0000 88.3393 -5.8673 6.5282 -14.5393 23.5005 -3.0399 0.0000 0.0000 35.1580 -0.7280 -5.5327 0.0702 7.1250 -0.0000 -0.0000 21.2564 -34.8075 5.6487
0.9136 16.0040 4.7459 173.2330 4.1823 -177.4300 0.0000 0.0000 0.0000 -31.9908 -3.3400 -8.9710 0.8711 5.9508 16.6418 -0.2332 9.1013 -6.7365 0.1392 2.4050 6.6262 0.0000 0.0000 0.0000 11.8870 4.7604 -27.2675 -14.5757 -19.2794 73.9552 0.6721 -14.8752 -1.2810 -1.2850 7.1831 -20.2591 -7.9033 0.3033 -3.3267 -2.8040 1.0952 1.8192 1.5933 0.4718 3.6865 2.0716 -0.0283 -34.0542 0.0741 0.1384 36.8192 -0.0989 0.8708 20.2227 -0.0000 0.0000 0.0000 -86.4134 -4.8353 0.6296 8.4018 -14.2021 -1.0485 -0.0000 -0.0000 63.9613 -1.1224 6.6891 -0.1308 -7.1250 0.0000 -0.0000 -23.0155 35.7647 5.6009 -0.0000 0.0000 0.0000 88.3593 -6.1777 5.9264 -14.4224 23.3353 -2.9934 0.0000 0.0000 35.0230 -0.6239 -5.6252 0.0612 7.1250 -0.0000 -0.0000 21.3616 -34.8876 5.6355
0.9137 15.9909 4.6253 173.1190 3.5314 -177.3450 0.0000 0.0000 0.0000 -32.1747 -3.4736 -8.7338 0.9194 6.1091 17.1013 -0.2059 8.8478 -7.2384 0.1159 2.1953 6.0456 0.0000 0.0000 0.0000 11.6626 5.1273 -28.3549 -14.4153 -19.2352 73.4687 0.6539 -14.3746 -2.6234 -1.2842 7.1810 -20.2527 -8.1427 0.0500 -3.3774 -2.7417 0.7810 1.9019 1.7713 0.3033 3.8269 2.3585 0.0894 -33.9034 -0.0784 0.2502 36.8802 -0.1924 0.9404 20.2246 0.0000 -0.0000 0.0000 -86.5574 -5.6853 2.4311 8.5432 -14.4294 -1.0835 -0.0000 -0.0000 62.3066 -1.2385 6.6960 -0.1444 -7.1250 0.0000 -0.0000 -23.1084 35.7635 5.6276 0.0000 -0.0000 0.0000 88.3061 -6.4756 5.1339 -14.3589 23.2454 -2.9683 0.0000 0.0000 36.2008 -0.5992 -5.2450 0.0548 7.1250 -0.0000 -0.0000 21.2847 -34.5320 5.8102
0.9139 15.9774 4.5051 173.0760 2.9484 -177.1870 0.0000 0.0000 0.0000 -32.2726 -3.6221 -8.6001 0.9757 6.2881 17.6226 -0.1793 8.6511 -7.7928 0.1008 2.0475 5.6371 0.0000 0.0000 0.0000 11.4799 5.5294 -29.4826 -14.1912 -19.1710 72.7875 0.6433 -14.1295 -3.5238 -1.2737 7.1529 -20.1691 -8.2443 -0.1323 -3.3956 -2.7148 0.5462 1.9158 1.8402 0.1825 3.8730 2.2160 0.0103 -34.2645 0.0958 0.1363 37.1140 -0.1052 0.9119 20.4636 0.0000 -0.0000 0.0000 -86.6289 -6.4083 4.2762 8.7164 -14.7074 -1.1270 -0.0000 -0.0000 61.2083 -1.2238 6.5214 -0.1390 -7.1250 0.0000 -0.0000 -23.0480 35.6037 5.7082 0.0000 -0.0000 0.0000 88.3195 -6.6533 4.5139 -14.2829 23.1376 -2.9383 0.0000 0.0000 35.9788 -0.3566 -5.5050 0.0342 7.1250 -0.0000 -0.0000 21.5402 -34.7602 5.7605
0.9165 15.9652 4.3867 173.1830 2.3664 -177.0670 0.0000 0.0000 0.0000 -32.1902 -3.6991 -8.4117 1.0259 6.4431 18.0756 -0.1508 8.4410 -8.3156 0.0818 1.8449 5.0771 0.0000 0.0000 0.0000 11.4738 6.0202 -30.4823 -13.8961 -19.0822 71.8870 0.6533 -14.1615 -4.5119 -1.2924 7.2030 -20.3181 -8.2631 -0.3079 -3.3122 -2.6277 0.2870 1.8287 1.9239 0.0551 3.7574 2.3044 -0.0099 -33.9314 0.0740 0.0652 36.9326 -0.1533 0.8921 20.2617 0.0000 -0.0000 0.0000 -86.7680 -6.9445 5.8227 8.9074 -15.0127 -1.1760 -0.0000 -0.0000 60.0813 -1.3580 6.4676 -0.1530 -7.1250 0.0000 -0.0000 -23.1381 35.5456 5.7695 0.0000 -0.0000 0.0000 88.3647 -7.2010 3.9771 -14.2342 23.0685 -2.9192 0.0000 0.0000 36.0334 -0.5535 -5.5595 0.0536 7.1250 -0.0000 -0.0000 21.3999 -34.8223 5.6834
0.9170 15.9518 4.2636 173.2880 1.7482 -176.9860 0.0000 0.0000 0.0000 -32.1186 -3.8314 -8.1480 1.0802 6.6062 18.5537 -0.1184 8.2454 -8.9308 0.0745 1.7611 4.8458 0.0000 0.0000 0.0000 11.4647 6.3227 -31.3304 -13.5506 -18.9720 70.8270 0.6751 -14.3711 -5.4209 -1.2349 7.0470 -19.8547 -8.2245 -0.4852 -3.2928 -2.5384 0.0386 1.8500 1.9786 -0.0727 3.7914 2.1709 -0.0699 -33.5906 0.2206 0.0057 36.8005 -0.0738 0.8744 20.0911 -0.0000 -0.0000 0.0000 -86.8742 -7.6701 7.7230 9.0675 -15.2680 -1.2178 -0.0000 -0.0000 58.8537 -1.4516 6.3810 -0.1614 -7.1250 0.0000 -0.0000 -23.1871 35.4599 5.8362 -0.0000 -0.0000 0.0000 88.4334 -7.7008 3.3722 -14.3373 23.2149 -2.9598 0.0000 0.0000 36.2976 -0.2990 -5.7484 0.0300 7.1250 -0.0000 -0.0000 21.6478 -34.9830 5.6668
0.9186 15.9399 4.1412 173.3810 1.1654 -176.9490 0.0000 0.0000 0.0000 -32.0635 -3.9743 -7.7691 1.1254 6.7384 18.9427 -0.0934 8.1647 -9.4853 0.0638 1.6293 4.4822 0.0000 0.0000 0.0000 11.4332 6.6668 -32.0634 -13.1473 -18.8347 69.5823 0.7000 -14.6613 -6.5522 -1.1076 6.6867 -18.7904 -8.2620 -0.7106 -3.1991 -2.4054 -0.2784 1.9068 2.1163 -0.2385 3.8288 2.1652 -0.1022 -33.9745 0.2345 -0.0035 37.2613 -0.0561 0.8954 20.4807 -0.0000 0.0000 0.0000 -87.0550 -8.1933 10.0955 9.4691 -15.9048 -1.3257 -0.0000 -0.0000 56.3378 -1.7239 6.6026 -0.1983 -7.1250 0.0000 -0.0000 -23.4619 35.6458 5.8002 -0.0000 0.0000 0.0000 88.3341 -7.8661 2.7387 -14.1781 22.9888 -2.8973 0.0000 0.0000 36.4921 -0.4466 -5.7504 0.0447 7.1250 -0.0000 -0.0000 21.5326 -34.9937 5.6267
0.9225 15.9291 4.0217 173.5320 0.5498 -176.8970 0.0000 0.0000 0.0000 -31.9072 -3.8770 -7.4466 1.1555 6.8249 19.1975 -0.0512 7.8147 -9.9791 0.0532 1.4883 4.0936 0.0000 0.0000 0.0000 11.4884 6.9172 -32.7545 -12.7078 -18.6741 68.2155 0.7492 -15.2155 -7.5470 -1.0786 6.6014 -18.5398 -8.2516 -0.8701 -3.1009 -2.2753 -0.5135 1.9310 2.2302 -0.3607 3.8221 1.9398 -0.1354 -33.9941 0.3973 -0.0341 37.0584 0.0503 0.8603 20.3569 0.0000 0.0000 0.0000 -87.2328 -8.8816 11.8213 9.7019 -16.2720 -1.3903 -0.0000 -0.0000 55.0855 -1.7320 6.5058 -0.1963 -7.1250 0.0000 -0.0000 -23.4409 35.5564 5.8499 0.0000 0.0000 0.0000 88.3490 -8.0702 1.8211 -13.9662 22.6864 -2.8151 0.0000 0.0000 36.8362 -0.6254 -5.7669 0.0628 7.1250 -0.0000 -0.0000 21.3965 -35.0196 5.5721
0.9236 15.9212 3.9001 173.5590 -0.0766 -176.8510 0.0000 0.0000 0.0000 -31.9088 -3.9711 -6.9368 1.1664 6.8558 19.2887 -0.0149 7.6168 -10.5323 0.0573 1.5441 4.2472 0.0000 0.0000 0.0000 11.3588 7.1353 -33.4231 -12.2204 -18.4823 66.6858 0.8193 -15.9337 -8.3056 -1.2639 7.1263 -20.0902 -8.2905 -0.8580 -3.0578 -2.1917 -0.8496 2.0462 2.3055 -0.6863 3.9329 1.8467 -0.1968 -34.0491 0.5100 -0.1410 37.0150 0.0931 0.8196 20.3431 0.0000 0.0000 0.0000 -87.3193 -9.5626 14.2110 10.0524 -16.8214 -1.4901 -0.0000 -0.0000 52.7039 -1.9548 6.7986 -0.2315 -7.1250 0.0000 -0.0000 -23.6981 35.8103 5.7641 0.0000 0.0000 0.0000 88.3657 -8.2670 1.2984 -13.9184 22.6179 -2.7966 0.0000 0.0000 36.6754 -0.7817 -5.9172 0.0806 7.1250 -0.0000 -0.0000 21.3123 -35.1689 5.4643
0.9264 15.9148 3.7776 173.5360 -0.5312 -176.7950 0.0000 0.0000 0.0000 -31.9667 -3.9973 -6.4028 1.1639 6.8488 19.2682 0.0033 7.5676 -10.8636 0.0481 1.4159 3.8939 0.0000 0.0000 0.0000 11.1514 7.4290 -34.0269 -11.7054 -18.2633 65.0521 0.8766 -16.5496 -9.2458 -1.2172 6.9984 -19.7105 -8.3960 -0.9534 -2.9561 -2.1628 -0.9859 1.9837 2.3875 -0.7509 3.8267 2.1082 -0.1767 -33.7503 0.2753 -0.1620 36.8316 -0.0797 0.8087 20.1492 -0.0000 -0.0000 0.0000 -87.4295 -10.1433 15.5071 10.2299 -17.0984 -1.5419 -0.0000 -0.0000 53.0737 -2.0216 6.5431 -0.2305 -7.1250 0.0000 -0.0000 -23.6772 35.5717 5.9085 -0.0000 -0.0000 0.0000 88.5026 -8.7455 0.3956 -13.7941 22.4395 -2.7490 0.0000 0.0000 36.9074 -0.8950 -5.9246 0.0924 7.1250 -0.0000 -0.0000 21.2250 -35.1825 5.4316
0.9316 15.9108 3.6530 173.5400 -1.1142 -176.7330 0.0000 0.0000 0.0000 -31.9563 -3.9059 -5.8267 1.1422 6.7868 19.0852 0.0346 7.3011 -11.1591 0.0403 1.2963 3.5645 0.0000 0.0000 0.0000 10.9840 7.6595 -34.4916 -11.1565 -18.0108 63.2886 0.9600 -17.3307 -9.9488 -1.1265 6.7416 -18.9521 -8.4763 -1.1351 -2.8764 -2.1106 -1.2294 2.0547 2.4700 -0.8778 3.8851 2.2631 -0.0507 -34.1644 0.2893 -0.0957 36.9326 -0.0810 0.8558 20.3202 0.0000 0.0000 0.0000 -87.5102 -10.7198 17.4004 10.5756 -17.6348 -1.6450 -0.0000 -0.0000 51.3883 -1.8375 6.6044 -0.2114 -7.1250 0.0000 -0.0000 -23.5511 35.6400 5.8294 0.0000 0.0000 0.0000 88.6047 -8.9345 -0.3291 -13.6861 22.2842 -2.7079 0.0000 0.0000 36.9248 -0.9613 -6.2095 0.1040 7.1250 -0.0000 -0.0000 21.2463 -35.4521 5.2882
